%TF.GenerationSoftware,KiCad,Pcbnew,8.0.1*%
%TF.CreationDate,2024-06-17T12:02:08-07:00*%
%TF.ProjectId,TDA7297_PCB,54444137-3239-4375-9f50-43422e6b6963,rev?*%
%TF.SameCoordinates,Original*%
%TF.FileFunction,Copper,L1,Top*%
%TF.FilePolarity,Positive*%
%FSLAX46Y46*%
G04 Gerber Fmt 4.6, Leading zero omitted, Abs format (unit mm)*
G04 Created by KiCad (PCBNEW 8.0.1) date 2024-06-17 12:02:08*
%MOMM*%
%LPD*%
G01*
G04 APERTURE LIST*
%TA.AperFunction,ComponentPad*%
%ADD10C,1.600000*%
%TD*%
%TA.AperFunction,ComponentPad*%
%ADD11O,1.600000X1.600000*%
%TD*%
%TA.AperFunction,ComponentPad*%
%ADD12R,2.600000X2.600000*%
%TD*%
%TA.AperFunction,ComponentPad*%
%ADD13C,2.600000*%
%TD*%
%TA.AperFunction,ComponentPad*%
%ADD14R,1.620000X1.620000*%
%TD*%
%TA.AperFunction,ComponentPad*%
%ADD15C,1.620000*%
%TD*%
%TA.AperFunction,ComponentPad*%
%ADD16R,3.000000X3.000000*%
%TD*%
%TA.AperFunction,ComponentPad*%
%ADD17C,3.000000*%
%TD*%
%TA.AperFunction,ComponentPad*%
%ADD18R,0.850000X0.850000*%
%TD*%
%TA.AperFunction,ComponentPad*%
%ADD19R,1.800000X1.800000*%
%TD*%
%TA.AperFunction,ComponentPad*%
%ADD20C,1.800000*%
%TD*%
%TA.AperFunction,ComponentPad*%
%ADD21R,2.400000X2.400000*%
%TD*%
%TA.AperFunction,ComponentPad*%
%ADD22C,2.400000*%
%TD*%
%TA.AperFunction,ComponentPad*%
%ADD23O,1.200000X2.200000*%
%TD*%
%TA.AperFunction,ComponentPad*%
%ADD24O,2.200000X1.200000*%
%TD*%
%TA.AperFunction,ComponentPad*%
%ADD25R,1.600000X1.600000*%
%TD*%
G04 APERTURE END LIST*
D10*
%TO.P,R3,1*%
%TO.N,+12V*%
X133420000Y-113500000D03*
D11*
%TO.P,R3,2*%
%TO.N,Net-(D1-A)*%
X143580000Y-113500000D03*
%TD*%
D12*
%TO.P,J1,1,Pin_1*%
%TO.N,+12V*%
X143500000Y-128000000D03*
D13*
%TO.P,J1,2,Pin_2*%
%TO.N,GND*%
X143500000Y-133000000D03*
%TD*%
D10*
%TO.P,R2,1*%
%TO.N,Net-(U1-MUTE)*%
X124572500Y-110200000D03*
D11*
%TO.P,R2,2*%
%TO.N,GND*%
X114412500Y-110200000D03*
%TD*%
D14*
%TO.P,U1,1,OUT1_P*%
%TO.N,Net-(J2-Pin_1)*%
X117387500Y-103080000D03*
D15*
%TO.P,U1,2,OUT1_M*%
%TO.N,Net-(J2-Pin_2)*%
X118657500Y-98000000D03*
%TO.P,U1,3,VCC*%
%TO.N,Net-(J5-Pin_1)*%
X119927500Y-103080000D03*
%TO.P,U1,4,IN1*%
%TO.N,Net-(U1-IN1)*%
X121197500Y-98000000D03*
%TO.P,U1,5*%
%TO.N,N/C*%
X122467500Y-103080000D03*
%TO.P,U1,6,MUTE*%
%TO.N,Net-(U1-MUTE)*%
X123737500Y-98000000D03*
%TO.P,U1,7,ST-BY*%
X125007500Y-103080000D03*
%TO.P,U1,8,PW-GND*%
%TO.N,GND*%
X126277500Y-98000000D03*
%TO.P,U1,9,S-GND*%
X127547500Y-103080000D03*
%TO.P,U1,10*%
%TO.N,N/C*%
X128817500Y-98000000D03*
%TO.P,U1,11*%
X130087500Y-103080000D03*
%TO.P,U1,12,IN2*%
%TO.N,Net-(U1-IN2)*%
X131357500Y-98000000D03*
%TO.P,U1,13,VCC*%
%TO.N,+12V*%
X132627500Y-103080000D03*
%TO.P,U1,14,OUT2_M*%
%TO.N,Net-(J3-Pin_1)*%
X133897500Y-98000000D03*
%TO.P,U1,15,OUT2_P*%
%TO.N,Net-(J3-Pin_2)*%
X135167500Y-103080000D03*
%TD*%
D16*
%TO.P,RV1,1,1*%
%TO.N,GND*%
X108000000Y-134305000D03*
D17*
%TO.P,RV1,2,2*%
%TO.N,/IN1*%
X113000000Y-134305000D03*
%TO.P,RV1,3,3*%
%TO.N,/L*%
X118000000Y-134305000D03*
%TO.P,RV1,4,4*%
%TO.N,GND*%
X108000000Y-129305000D03*
%TO.P,RV1,5,5*%
%TO.N,/IN2*%
X113000000Y-129305000D03*
%TO.P,RV1,6,6*%
%TO.N,/R*%
X118000000Y-129305000D03*
%TD*%
D18*
%TO.P,J6,1,Pin_1*%
%TO.N,+12V*%
X136995000Y-105400000D03*
%TD*%
%TO.P,J5,1,Pin_1*%
%TO.N,Net-(J5-Pin_1)*%
X119895000Y-105400000D03*
%TD*%
D19*
%TO.P,D1,1,K*%
%TO.N,GND*%
X143500000Y-121775000D03*
D20*
%TO.P,D1,2,A*%
%TO.N,Net-(D1-A)*%
X143500000Y-119235000D03*
%TD*%
D10*
%TO.P,C2,1*%
%TO.N,/IN1*%
X105500000Y-121500000D03*
%TO.P,C2,2*%
%TO.N,Net-(U1-IN1)*%
X105500000Y-116500000D03*
%TD*%
%TO.P,R1,1*%
%TO.N,+12V*%
X134652500Y-107040000D03*
D11*
%TO.P,R1,2*%
%TO.N,Net-(U1-MUTE)*%
X124492500Y-107040000D03*
%TD*%
D12*
%TO.P,J2,1,Pin_1*%
%TO.N,Net-(J2-Pin_1)*%
X108610000Y-108970000D03*
D13*
%TO.P,J2,2,Pin_2*%
%TO.N,Net-(J2-Pin_2)*%
X108610000Y-103970000D03*
%TD*%
D21*
%TO.P,C4,1*%
%TO.N,+12V*%
X126000000Y-116040000D03*
D22*
%TO.P,C4,2*%
%TO.N,GND*%
X126000000Y-121040000D03*
%TD*%
D10*
%TO.P,C5,1*%
%TO.N,+12V*%
X136500000Y-116540000D03*
%TO.P,C5,2*%
%TO.N,GND*%
X136500000Y-119040000D03*
%TD*%
D23*
%TO.P,J4,R*%
%TO.N,/R*%
X125000000Y-128705000D03*
D24*
%TO.P,J4,S*%
%TO.N,GND*%
X130000000Y-133705000D03*
D23*
%TO.P,J4,T*%
%TO.N,/L*%
X135000000Y-128705000D03*
%TD*%
D25*
%TO.P,C1,1*%
%TO.N,Net-(U1-MUTE)*%
X115000000Y-114334888D03*
D10*
%TO.P,C1,2*%
%TO.N,GND*%
X115000000Y-116834888D03*
%TD*%
%TO.P,C3,1*%
%TO.N,/IN2*%
X109000000Y-121500000D03*
%TO.P,C3,2*%
%TO.N,Net-(U1-IN2)*%
X109000000Y-116500000D03*
%TD*%
D12*
%TO.P,J3,1,Pin_1*%
%TO.N,Net-(J3-Pin_1)*%
X143500000Y-103970000D03*
D13*
%TO.P,J3,2,Pin_2*%
%TO.N,Net-(J3-Pin_2)*%
X143500000Y-108970000D03*
%TD*%
M02*
