%TF.GenerationSoftware,KiCad,Pcbnew,8.0.1*%
%TF.CreationDate,2024-06-17T12:02:08-07:00*%
%TF.ProjectId,TDA7297_PCB,54444137-3239-4375-9f50-43422e6b6963,rev?*%
%TF.SameCoordinates,Original*%
%TF.FileFunction,Legend,Top*%
%TF.FilePolarity,Positive*%
%FSLAX46Y46*%
G04 Gerber Fmt 4.6, Leading zero omitted, Abs format (unit mm)*
G04 Created by KiCad (PCBNEW 8.0.1) date 2024-06-17 12:02:08*
%MOMM*%
%LPD*%
G01*
G04 APERTURE LIST*
%ADD10C,0.300000*%
%ADD11C,0.100000*%
%ADD12C,0.400000*%
%ADD13C,0.150000*%
%ADD14C,0.120000*%
%ADD15C,0.127000*%
%ADD16C,0.240000*%
G04 APERTURE END LIST*
D10*
X101500000Y-91500000D02*
X150500000Y-91500000D01*
X150500000Y-140500000D01*
X101500000Y-140500000D01*
X101500000Y-91500000D01*
D11*
X120595000Y-105400000D02*
X136300000Y-105400000D01*
D12*
X141120299Y-97209578D02*
X141501252Y-97209578D01*
X141501252Y-97209578D02*
X141691728Y-97304816D01*
X141691728Y-97304816D02*
X141882204Y-97495292D01*
X141882204Y-97495292D02*
X141977442Y-97876244D01*
X141977442Y-97876244D02*
X141977442Y-98542911D01*
X141977442Y-98542911D02*
X141882204Y-98923863D01*
X141882204Y-98923863D02*
X141691728Y-99114340D01*
X141691728Y-99114340D02*
X141501252Y-99209578D01*
X141501252Y-99209578D02*
X141120299Y-99209578D01*
X141120299Y-99209578D02*
X140929823Y-99114340D01*
X140929823Y-99114340D02*
X140739347Y-98923863D01*
X140739347Y-98923863D02*
X140644109Y-98542911D01*
X140644109Y-98542911D02*
X140644109Y-97876244D01*
X140644109Y-97876244D02*
X140739347Y-97495292D01*
X140739347Y-97495292D02*
X140929823Y-97304816D01*
X140929823Y-97304816D02*
X141120299Y-97209578D01*
X142834585Y-97209578D02*
X142834585Y-98828625D01*
X142834585Y-98828625D02*
X142929823Y-99019101D01*
X142929823Y-99019101D02*
X143025061Y-99114340D01*
X143025061Y-99114340D02*
X143215537Y-99209578D01*
X143215537Y-99209578D02*
X143596490Y-99209578D01*
X143596490Y-99209578D02*
X143786966Y-99114340D01*
X143786966Y-99114340D02*
X143882204Y-99019101D01*
X143882204Y-99019101D02*
X143977442Y-98828625D01*
X143977442Y-98828625D02*
X143977442Y-97209578D01*
X144644109Y-97209578D02*
X145786966Y-97209578D01*
X145215537Y-99209578D02*
X145215537Y-97209578D01*
X146358395Y-97400054D02*
X146453633Y-97304816D01*
X146453633Y-97304816D02*
X146644109Y-97209578D01*
X146644109Y-97209578D02*
X147120300Y-97209578D01*
X147120300Y-97209578D02*
X147310776Y-97304816D01*
X147310776Y-97304816D02*
X147406014Y-97400054D01*
X147406014Y-97400054D02*
X147501252Y-97590530D01*
X147501252Y-97590530D02*
X147501252Y-97781006D01*
X147501252Y-97781006D02*
X147406014Y-98066720D01*
X147406014Y-98066720D02*
X146263157Y-99209578D01*
X146263157Y-99209578D02*
X147501252Y-99209578D01*
X138739347Y-138734438D02*
X138739347Y-136734438D01*
X138739347Y-136734438D02*
X139501252Y-136734438D01*
X139501252Y-136734438D02*
X139691728Y-136829676D01*
X139691728Y-136829676D02*
X139786966Y-136924914D01*
X139786966Y-136924914D02*
X139882204Y-137115390D01*
X139882204Y-137115390D02*
X139882204Y-137401104D01*
X139882204Y-137401104D02*
X139786966Y-137591580D01*
X139786966Y-137591580D02*
X139691728Y-137686819D01*
X139691728Y-137686819D02*
X139501252Y-137782057D01*
X139501252Y-137782057D02*
X138739347Y-137782057D01*
X141120299Y-136734438D02*
X141501252Y-136734438D01*
X141501252Y-136734438D02*
X141691728Y-136829676D01*
X141691728Y-136829676D02*
X141882204Y-137020152D01*
X141882204Y-137020152D02*
X141977442Y-137401104D01*
X141977442Y-137401104D02*
X141977442Y-138067771D01*
X141977442Y-138067771D02*
X141882204Y-138448723D01*
X141882204Y-138448723D02*
X141691728Y-138639200D01*
X141691728Y-138639200D02*
X141501252Y-138734438D01*
X141501252Y-138734438D02*
X141120299Y-138734438D01*
X141120299Y-138734438D02*
X140929823Y-138639200D01*
X140929823Y-138639200D02*
X140739347Y-138448723D01*
X140739347Y-138448723D02*
X140644109Y-138067771D01*
X140644109Y-138067771D02*
X140644109Y-137401104D01*
X140644109Y-137401104D02*
X140739347Y-137020152D01*
X140739347Y-137020152D02*
X140929823Y-136829676D01*
X140929823Y-136829676D02*
X141120299Y-136734438D01*
X142644109Y-136734438D02*
X143120299Y-138734438D01*
X143120299Y-138734438D02*
X143501252Y-137305866D01*
X143501252Y-137305866D02*
X143882204Y-138734438D01*
X143882204Y-138734438D02*
X144358395Y-136734438D01*
X145120299Y-137686819D02*
X145786966Y-137686819D01*
X146072680Y-138734438D02*
X145120299Y-138734438D01*
X145120299Y-138734438D02*
X145120299Y-136734438D01*
X145120299Y-136734438D02*
X146072680Y-136734438D01*
X148072680Y-138734438D02*
X147406013Y-137782057D01*
X146929823Y-138734438D02*
X146929823Y-136734438D01*
X146929823Y-136734438D02*
X147691728Y-136734438D01*
X147691728Y-136734438D02*
X147882204Y-136829676D01*
X147882204Y-136829676D02*
X147977442Y-136924914D01*
X147977442Y-136924914D02*
X148072680Y-137115390D01*
X148072680Y-137115390D02*
X148072680Y-137401104D01*
X148072680Y-137401104D02*
X147977442Y-137591580D01*
X147977442Y-137591580D02*
X147882204Y-137686819D01*
X147882204Y-137686819D02*
X147691728Y-137782057D01*
X147691728Y-137782057D02*
X146929823Y-137782057D01*
X104895299Y-98014550D02*
X105276252Y-98014550D01*
X105276252Y-98014550D02*
X105466728Y-98109788D01*
X105466728Y-98109788D02*
X105657204Y-98300264D01*
X105657204Y-98300264D02*
X105752442Y-98681216D01*
X105752442Y-98681216D02*
X105752442Y-99347883D01*
X105752442Y-99347883D02*
X105657204Y-99728835D01*
X105657204Y-99728835D02*
X105466728Y-99919312D01*
X105466728Y-99919312D02*
X105276252Y-100014550D01*
X105276252Y-100014550D02*
X104895299Y-100014550D01*
X104895299Y-100014550D02*
X104704823Y-99919312D01*
X104704823Y-99919312D02*
X104514347Y-99728835D01*
X104514347Y-99728835D02*
X104419109Y-99347883D01*
X104419109Y-99347883D02*
X104419109Y-98681216D01*
X104419109Y-98681216D02*
X104514347Y-98300264D01*
X104514347Y-98300264D02*
X104704823Y-98109788D01*
X104704823Y-98109788D02*
X104895299Y-98014550D01*
X106609585Y-98014550D02*
X106609585Y-99633597D01*
X106609585Y-99633597D02*
X106704823Y-99824073D01*
X106704823Y-99824073D02*
X106800061Y-99919312D01*
X106800061Y-99919312D02*
X106990537Y-100014550D01*
X106990537Y-100014550D02*
X107371490Y-100014550D01*
X107371490Y-100014550D02*
X107561966Y-99919312D01*
X107561966Y-99919312D02*
X107657204Y-99824073D01*
X107657204Y-99824073D02*
X107752442Y-99633597D01*
X107752442Y-99633597D02*
X107752442Y-98014550D01*
X108419109Y-98014550D02*
X109561966Y-98014550D01*
X108990537Y-100014550D02*
X108990537Y-98014550D01*
X111276252Y-100014550D02*
X110133395Y-100014550D01*
X110704823Y-100014550D02*
X110704823Y-98014550D01*
X110704823Y-98014550D02*
X110514347Y-98300264D01*
X110514347Y-98300264D02*
X110323871Y-98490740D01*
X110323871Y-98490740D02*
X110133395Y-98585978D01*
D10*
X138250000Y-114178328D02*
X137750000Y-113464042D01*
X137392857Y-114178328D02*
X137392857Y-112678328D01*
X137392857Y-112678328D02*
X137964286Y-112678328D01*
X137964286Y-112678328D02*
X138107143Y-112749757D01*
X138107143Y-112749757D02*
X138178572Y-112821185D01*
X138178572Y-112821185D02*
X138250000Y-112964042D01*
X138250000Y-112964042D02*
X138250000Y-113178328D01*
X138250000Y-113178328D02*
X138178572Y-113321185D01*
X138178572Y-113321185D02*
X138107143Y-113392614D01*
X138107143Y-113392614D02*
X137964286Y-113464042D01*
X137964286Y-113464042D02*
X137392857Y-113464042D01*
X138750000Y-112678328D02*
X139678572Y-112678328D01*
X139678572Y-112678328D02*
X139178572Y-113249757D01*
X139178572Y-113249757D02*
X139392857Y-113249757D01*
X139392857Y-113249757D02*
X139535715Y-113321185D01*
X139535715Y-113321185D02*
X139607143Y-113392614D01*
X139607143Y-113392614D02*
X139678572Y-113535471D01*
X139678572Y-113535471D02*
X139678572Y-113892614D01*
X139678572Y-113892614D02*
X139607143Y-114035471D01*
X139607143Y-114035471D02*
X139535715Y-114106900D01*
X139535715Y-114106900D02*
X139392857Y-114178328D01*
X139392857Y-114178328D02*
X138964286Y-114178328D01*
X138964286Y-114178328D02*
X138821429Y-114106900D01*
X138821429Y-114106900D02*
X138750000Y-114035471D01*
X119242500Y-110418328D02*
X118742500Y-109704042D01*
X118385357Y-110418328D02*
X118385357Y-108918328D01*
X118385357Y-108918328D02*
X118956786Y-108918328D01*
X118956786Y-108918328D02*
X119099643Y-108989757D01*
X119099643Y-108989757D02*
X119171072Y-109061185D01*
X119171072Y-109061185D02*
X119242500Y-109204042D01*
X119242500Y-109204042D02*
X119242500Y-109418328D01*
X119242500Y-109418328D02*
X119171072Y-109561185D01*
X119171072Y-109561185D02*
X119099643Y-109632614D01*
X119099643Y-109632614D02*
X118956786Y-109704042D01*
X118956786Y-109704042D02*
X118385357Y-109704042D01*
X119813929Y-109061185D02*
X119885357Y-108989757D01*
X119885357Y-108989757D02*
X120028215Y-108918328D01*
X120028215Y-108918328D02*
X120385357Y-108918328D01*
X120385357Y-108918328D02*
X120528215Y-108989757D01*
X120528215Y-108989757D02*
X120599643Y-109061185D01*
X120599643Y-109061185D02*
X120671072Y-109204042D01*
X120671072Y-109204042D02*
X120671072Y-109346900D01*
X120671072Y-109346900D02*
X120599643Y-109561185D01*
X120599643Y-109561185D02*
X119742500Y-110418328D01*
X119742500Y-110418328D02*
X120671072Y-110418328D01*
X113357142Y-94178328D02*
X113357142Y-95392614D01*
X113357142Y-95392614D02*
X113428571Y-95535471D01*
X113428571Y-95535471D02*
X113500000Y-95606900D01*
X113500000Y-95606900D02*
X113642857Y-95678328D01*
X113642857Y-95678328D02*
X113928571Y-95678328D01*
X113928571Y-95678328D02*
X114071428Y-95606900D01*
X114071428Y-95606900D02*
X114142857Y-95535471D01*
X114142857Y-95535471D02*
X114214285Y-95392614D01*
X114214285Y-95392614D02*
X114214285Y-94178328D01*
X115714286Y-95678328D02*
X114857143Y-95678328D01*
X115285714Y-95678328D02*
X115285714Y-94178328D01*
X115285714Y-94178328D02*
X115142857Y-94392614D01*
X115142857Y-94392614D02*
X115000000Y-94535471D01*
X115000000Y-94535471D02*
X114857143Y-94606900D01*
X105107143Y-125218328D02*
X104607143Y-124504042D01*
X104250000Y-125218328D02*
X104250000Y-123718328D01*
X104250000Y-123718328D02*
X104821429Y-123718328D01*
X104821429Y-123718328D02*
X104964286Y-123789757D01*
X104964286Y-123789757D02*
X105035715Y-123861185D01*
X105035715Y-123861185D02*
X105107143Y-124004042D01*
X105107143Y-124004042D02*
X105107143Y-124218328D01*
X105107143Y-124218328D02*
X105035715Y-124361185D01*
X105035715Y-124361185D02*
X104964286Y-124432614D01*
X104964286Y-124432614D02*
X104821429Y-124504042D01*
X104821429Y-124504042D02*
X104250000Y-124504042D01*
X105535715Y-123718328D02*
X106035715Y-125218328D01*
X106035715Y-125218328D02*
X106535715Y-123718328D01*
X107821429Y-125218328D02*
X106964286Y-125218328D01*
X107392857Y-125218328D02*
X107392857Y-123718328D01*
X107392857Y-123718328D02*
X107250000Y-123932614D01*
X107250000Y-123932614D02*
X107107143Y-124075471D01*
X107107143Y-124075471D02*
X106964286Y-124146900D01*
X148678328Y-121607142D02*
X147178328Y-121607142D01*
X147178328Y-121607142D02*
X147178328Y-121249999D01*
X147178328Y-121249999D02*
X147249757Y-121035713D01*
X147249757Y-121035713D02*
X147392614Y-120892856D01*
X147392614Y-120892856D02*
X147535471Y-120821427D01*
X147535471Y-120821427D02*
X147821185Y-120749999D01*
X147821185Y-120749999D02*
X148035471Y-120749999D01*
X148035471Y-120749999D02*
X148321185Y-120821427D01*
X148321185Y-120821427D02*
X148464042Y-120892856D01*
X148464042Y-120892856D02*
X148606900Y-121035713D01*
X148606900Y-121035713D02*
X148678328Y-121249999D01*
X148678328Y-121249999D02*
X148678328Y-121607142D01*
X148678328Y-119321427D02*
X148678328Y-120178570D01*
X148678328Y-119749999D02*
X147178328Y-119749999D01*
X147178328Y-119749999D02*
X147392614Y-119892856D01*
X147392614Y-119892856D02*
X147535471Y-120035713D01*
X147535471Y-120035713D02*
X147606900Y-120178570D01*
X106035471Y-119249999D02*
X106106900Y-119321427D01*
X106106900Y-119321427D02*
X106178328Y-119535713D01*
X106178328Y-119535713D02*
X106178328Y-119678570D01*
X106178328Y-119678570D02*
X106106900Y-119892856D01*
X106106900Y-119892856D02*
X105964042Y-120035713D01*
X105964042Y-120035713D02*
X105821185Y-120107142D01*
X105821185Y-120107142D02*
X105535471Y-120178570D01*
X105535471Y-120178570D02*
X105321185Y-120178570D01*
X105321185Y-120178570D02*
X105035471Y-120107142D01*
X105035471Y-120107142D02*
X104892614Y-120035713D01*
X104892614Y-120035713D02*
X104749757Y-119892856D01*
X104749757Y-119892856D02*
X104678328Y-119678570D01*
X104678328Y-119678570D02*
X104678328Y-119535713D01*
X104678328Y-119535713D02*
X104749757Y-119321427D01*
X104749757Y-119321427D02*
X104821185Y-119249999D01*
X104821185Y-118678570D02*
X104749757Y-118607142D01*
X104749757Y-118607142D02*
X104678328Y-118464285D01*
X104678328Y-118464285D02*
X104678328Y-118107142D01*
X104678328Y-118107142D02*
X104749757Y-117964285D01*
X104749757Y-117964285D02*
X104821185Y-117892856D01*
X104821185Y-117892856D02*
X104964042Y-117821427D01*
X104964042Y-117821427D02*
X105106900Y-117821427D01*
X105106900Y-117821427D02*
X105321185Y-117892856D01*
X105321185Y-117892856D02*
X106178328Y-118749999D01*
X106178328Y-118749999D02*
X106178328Y-117821427D01*
X129322500Y-107718328D02*
X128822500Y-107004042D01*
X128465357Y-107718328D02*
X128465357Y-106218328D01*
X128465357Y-106218328D02*
X129036786Y-106218328D01*
X129036786Y-106218328D02*
X129179643Y-106289757D01*
X129179643Y-106289757D02*
X129251072Y-106361185D01*
X129251072Y-106361185D02*
X129322500Y-106504042D01*
X129322500Y-106504042D02*
X129322500Y-106718328D01*
X129322500Y-106718328D02*
X129251072Y-106861185D01*
X129251072Y-106861185D02*
X129179643Y-106932614D01*
X129179643Y-106932614D02*
X129036786Y-107004042D01*
X129036786Y-107004042D02*
X128465357Y-107004042D01*
X130751072Y-107718328D02*
X129893929Y-107718328D01*
X130322500Y-107718328D02*
X130322500Y-106218328D01*
X130322500Y-106218328D02*
X130179643Y-106432614D01*
X130179643Y-106432614D02*
X130036786Y-106575471D01*
X130036786Y-106575471D02*
X129893929Y-106646900D01*
X121750000Y-117075471D02*
X121678572Y-117146900D01*
X121678572Y-117146900D02*
X121464286Y-117218328D01*
X121464286Y-117218328D02*
X121321429Y-117218328D01*
X121321429Y-117218328D02*
X121107143Y-117146900D01*
X121107143Y-117146900D02*
X120964286Y-117004042D01*
X120964286Y-117004042D02*
X120892857Y-116861185D01*
X120892857Y-116861185D02*
X120821429Y-116575471D01*
X120821429Y-116575471D02*
X120821429Y-116361185D01*
X120821429Y-116361185D02*
X120892857Y-116075471D01*
X120892857Y-116075471D02*
X120964286Y-115932614D01*
X120964286Y-115932614D02*
X121107143Y-115789757D01*
X121107143Y-115789757D02*
X121321429Y-115718328D01*
X121321429Y-115718328D02*
X121464286Y-115718328D01*
X121464286Y-115718328D02*
X121678572Y-115789757D01*
X121678572Y-115789757D02*
X121750000Y-115861185D01*
X123035715Y-116218328D02*
X123035715Y-117218328D01*
X122678572Y-115646900D02*
X122321429Y-116718328D01*
X122321429Y-116718328D02*
X123250000Y-116718328D01*
X136250000Y-121575471D02*
X136178572Y-121646900D01*
X136178572Y-121646900D02*
X135964286Y-121718328D01*
X135964286Y-121718328D02*
X135821429Y-121718328D01*
X135821429Y-121718328D02*
X135607143Y-121646900D01*
X135607143Y-121646900D02*
X135464286Y-121504042D01*
X135464286Y-121504042D02*
X135392857Y-121361185D01*
X135392857Y-121361185D02*
X135321429Y-121075471D01*
X135321429Y-121075471D02*
X135321429Y-120861185D01*
X135321429Y-120861185D02*
X135392857Y-120575471D01*
X135392857Y-120575471D02*
X135464286Y-120432614D01*
X135464286Y-120432614D02*
X135607143Y-120289757D01*
X135607143Y-120289757D02*
X135821429Y-120218328D01*
X135821429Y-120218328D02*
X135964286Y-120218328D01*
X135964286Y-120218328D02*
X136178572Y-120289757D01*
X136178572Y-120289757D02*
X136250000Y-120361185D01*
X137607143Y-120218328D02*
X136892857Y-120218328D01*
X136892857Y-120218328D02*
X136821429Y-120932614D01*
X136821429Y-120932614D02*
X136892857Y-120861185D01*
X136892857Y-120861185D02*
X137035715Y-120789757D01*
X137035715Y-120789757D02*
X137392857Y-120789757D01*
X137392857Y-120789757D02*
X137535715Y-120861185D01*
X137535715Y-120861185D02*
X137607143Y-120932614D01*
X137607143Y-120932614D02*
X137678572Y-121075471D01*
X137678572Y-121075471D02*
X137678572Y-121432614D01*
X137678572Y-121432614D02*
X137607143Y-121575471D01*
X137607143Y-121575471D02*
X137535715Y-121646900D01*
X137535715Y-121646900D02*
X137392857Y-121718328D01*
X137392857Y-121718328D02*
X137035715Y-121718328D01*
X137035715Y-121718328D02*
X136892857Y-121646900D01*
X136892857Y-121646900D02*
X136821429Y-121575471D01*
X114750000Y-120075471D02*
X114678572Y-120146900D01*
X114678572Y-120146900D02*
X114464286Y-120218328D01*
X114464286Y-120218328D02*
X114321429Y-120218328D01*
X114321429Y-120218328D02*
X114107143Y-120146900D01*
X114107143Y-120146900D02*
X113964286Y-120004042D01*
X113964286Y-120004042D02*
X113892857Y-119861185D01*
X113892857Y-119861185D02*
X113821429Y-119575471D01*
X113821429Y-119575471D02*
X113821429Y-119361185D01*
X113821429Y-119361185D02*
X113892857Y-119075471D01*
X113892857Y-119075471D02*
X113964286Y-118932614D01*
X113964286Y-118932614D02*
X114107143Y-118789757D01*
X114107143Y-118789757D02*
X114321429Y-118718328D01*
X114321429Y-118718328D02*
X114464286Y-118718328D01*
X114464286Y-118718328D02*
X114678572Y-118789757D01*
X114678572Y-118789757D02*
X114750000Y-118861185D01*
X116178572Y-120218328D02*
X115321429Y-120218328D01*
X115750000Y-120218328D02*
X115750000Y-118718328D01*
X115750000Y-118718328D02*
X115607143Y-118932614D01*
X115607143Y-118932614D02*
X115464286Y-119075471D01*
X115464286Y-119075471D02*
X115321429Y-119146900D01*
X109535471Y-119249999D02*
X109606900Y-119321427D01*
X109606900Y-119321427D02*
X109678328Y-119535713D01*
X109678328Y-119535713D02*
X109678328Y-119678570D01*
X109678328Y-119678570D02*
X109606900Y-119892856D01*
X109606900Y-119892856D02*
X109464042Y-120035713D01*
X109464042Y-120035713D02*
X109321185Y-120107142D01*
X109321185Y-120107142D02*
X109035471Y-120178570D01*
X109035471Y-120178570D02*
X108821185Y-120178570D01*
X108821185Y-120178570D02*
X108535471Y-120107142D01*
X108535471Y-120107142D02*
X108392614Y-120035713D01*
X108392614Y-120035713D02*
X108249757Y-119892856D01*
X108249757Y-119892856D02*
X108178328Y-119678570D01*
X108178328Y-119678570D02*
X108178328Y-119535713D01*
X108178328Y-119535713D02*
X108249757Y-119321427D01*
X108249757Y-119321427D02*
X108321185Y-119249999D01*
X108178328Y-118749999D02*
X108178328Y-117821427D01*
X108178328Y-117821427D02*
X108749757Y-118321427D01*
X108749757Y-118321427D02*
X108749757Y-118107142D01*
X108749757Y-118107142D02*
X108821185Y-117964285D01*
X108821185Y-117964285D02*
X108892614Y-117892856D01*
X108892614Y-117892856D02*
X109035471Y-117821427D01*
X109035471Y-117821427D02*
X109392614Y-117821427D01*
X109392614Y-117821427D02*
X109535471Y-117892856D01*
X109535471Y-117892856D02*
X109606900Y-117964285D01*
X109606900Y-117964285D02*
X109678328Y-118107142D01*
X109678328Y-118107142D02*
X109678328Y-118535713D01*
X109678328Y-118535713D02*
X109606900Y-118678570D01*
X109606900Y-118678570D02*
X109535471Y-118749999D01*
D13*
X148314819Y-106803333D02*
X149029104Y-106803333D01*
X149029104Y-106803333D02*
X149171961Y-106850952D01*
X149171961Y-106850952D02*
X149267200Y-106946190D01*
X149267200Y-106946190D02*
X149314819Y-107089047D01*
X149314819Y-107089047D02*
X149314819Y-107184285D01*
X148314819Y-106422380D02*
X148314819Y-105803333D01*
X148314819Y-105803333D02*
X148695771Y-106136666D01*
X148695771Y-106136666D02*
X148695771Y-105993809D01*
X148695771Y-105993809D02*
X148743390Y-105898571D01*
X148743390Y-105898571D02*
X148791009Y-105850952D01*
X148791009Y-105850952D02*
X148886247Y-105803333D01*
X148886247Y-105803333D02*
X149124342Y-105803333D01*
X149124342Y-105803333D02*
X149219580Y-105850952D01*
X149219580Y-105850952D02*
X149267200Y-105898571D01*
X149267200Y-105898571D02*
X149314819Y-105993809D01*
X149314819Y-105993809D02*
X149314819Y-106279523D01*
X149314819Y-106279523D02*
X149267200Y-106374761D01*
X149267200Y-106374761D02*
X149219580Y-106422380D01*
D14*
%TO.C,R3*%
X134460000Y-113500000D02*
X135230000Y-113500000D01*
X135230000Y-112130000D02*
X135230000Y-114870000D01*
X135230000Y-114870000D02*
X141770000Y-114870000D01*
X141770000Y-112130000D02*
X135230000Y-112130000D01*
X141770000Y-114870000D02*
X141770000Y-112130000D01*
X142540000Y-113500000D02*
X141770000Y-113500000D01*
%TO.C,J1*%
X139200000Y-125200000D02*
X139200000Y-125700000D01*
X139440000Y-125440000D02*
X139440000Y-135560000D01*
X139940000Y-125200000D02*
X139200000Y-125200000D01*
X140000000Y-125440000D02*
X140000000Y-135560000D01*
X141500000Y-125440000D02*
X141500000Y-135560000D01*
X142261000Y-131966000D02*
X142226000Y-131931000D01*
X142477000Y-131773000D02*
X142431000Y-131726000D01*
X144569000Y-134275000D02*
X144523000Y-134228000D01*
X144775000Y-134070000D02*
X144739000Y-134035000D01*
X145801000Y-125440000D02*
X145801000Y-135560000D01*
X146800000Y-127000000D02*
X146800000Y-129000000D01*
X146800000Y-132000000D02*
X146800000Y-134000000D01*
X147800000Y-127000000D02*
X146800000Y-127000000D01*
X147800000Y-127000000D02*
X147800000Y-129000000D01*
X147800000Y-129000000D02*
X146800000Y-129000000D01*
X147800000Y-132000000D02*
X146800000Y-132000000D01*
X147800000Y-132000000D02*
X147800000Y-134000000D01*
X147800000Y-134000000D02*
X146800000Y-134000000D01*
X147860000Y-125440000D02*
X139440000Y-125440000D01*
X147860000Y-125440000D02*
X147860000Y-135560000D01*
X147860000Y-135560000D02*
X139440000Y-135560000D01*
X141819748Y-128028805D02*
G75*
G02*
X141965001Y-127316000I1680253J28806D01*
G01*
X141965245Y-128683318D02*
G75*
G02*
X141820001Y-128000000I1534755J683318D01*
G01*
X142816958Y-126464574D02*
G75*
G02*
X144183999Y-126465001I683041J-1535419D01*
G01*
X144183042Y-129535426D02*
G75*
G02*
X142816000Y-129535000I-683042J1535426D01*
G01*
X145035426Y-127316958D02*
G75*
G02*
X145034999Y-128683999I-1535419J-683041D01*
G01*
X145180000Y-133000000D02*
G75*
G02*
X141820000Y-133000000I-1680000J0D01*
G01*
X141820000Y-133000000D02*
G75*
G02*
X145180000Y-133000000I1680000J0D01*
G01*
%TO.C,R2*%
X115452500Y-110200000D02*
X116222500Y-110200000D01*
X116222500Y-108830000D02*
X116222500Y-111570000D01*
X116222500Y-111570000D02*
X122762500Y-111570000D01*
X122762500Y-108830000D02*
X116222500Y-108830000D01*
X122762500Y-111570000D02*
X122762500Y-108830000D01*
X123532500Y-110200000D02*
X122762500Y-110200000D01*
D15*
%TO.C,U1*%
X116177500Y-93450000D02*
X136377500Y-93450000D01*
X116177500Y-97550000D02*
X116177500Y-93450000D01*
X117567500Y-97550000D02*
X116177500Y-97550000D01*
X118437500Y-97550000D02*
X118937500Y-97550000D01*
X120937500Y-97550000D02*
X121437500Y-97550000D01*
X123467500Y-97550000D02*
X123987500Y-97550000D01*
X126007500Y-97550000D02*
X126547500Y-97550000D01*
X128547500Y-97550000D02*
X129097500Y-97550000D01*
X131097500Y-97550000D02*
X131627500Y-97550000D01*
X133637500Y-97550000D02*
X134167500Y-97550000D01*
X136377500Y-93450000D02*
X136377500Y-97550000D01*
X136377500Y-97550000D02*
X134957500Y-97550000D01*
D16*
X115707500Y-103080000D02*
G75*
G02*
X115467500Y-103080000I-120000J0D01*
G01*
X115467500Y-103080000D02*
G75*
G02*
X115707500Y-103080000I120000J0D01*
G01*
D14*
%TO.C,RV1*%
X103930000Y-125885000D02*
X103930000Y-138225000D01*
X109380000Y-138225000D02*
X109380000Y-140305000D01*
X116620000Y-138225000D02*
X116620000Y-140305000D01*
X116620000Y-140305000D02*
X109380000Y-140305000D01*
X122070000Y-125885000D02*
X103930000Y-125885000D01*
X122070000Y-125885000D02*
X122070000Y-138225000D01*
X122070000Y-138225000D02*
X103930000Y-138225000D01*
%TO.C,J6*%
X136300000Y-104715000D02*
X136995000Y-104715000D01*
X136300000Y-105400000D02*
X136300000Y-104715000D01*
X136300000Y-106085000D02*
X136300000Y-105960000D01*
X136300000Y-106085000D02*
X136386724Y-106085000D01*
X136300000Y-106085000D02*
X137690000Y-106085000D01*
X137603276Y-106085000D02*
X137690000Y-106085000D01*
X137690000Y-106085000D02*
X137690000Y-105960000D01*
%TO.C,J5*%
X119200000Y-104715000D02*
X119895000Y-104715000D01*
X119200000Y-105400000D02*
X119200000Y-104715000D01*
X119200000Y-106085000D02*
X119200000Y-105960000D01*
X119200000Y-106085000D02*
X119286724Y-106085000D01*
X119200000Y-106085000D02*
X120590000Y-106085000D01*
X120503276Y-106085000D02*
X120590000Y-106085000D01*
X120590000Y-106085000D02*
X120590000Y-105960000D01*
%TO.C,D1*%
X141955000Y-123065000D02*
X145045000Y-123065000D01*
X141955170Y-123064999D02*
G75*
G02*
X143500462Y-117515001I1544830J2559999D01*
G01*
X143499538Y-117515000D02*
G75*
G02*
X145044830Y-123065000I462J-2990000D01*
G01*
X146000000Y-120505000D02*
G75*
G02*
X141000000Y-120505000I-2500000J0D01*
G01*
X141000000Y-120505000D02*
G75*
G02*
X146000000Y-120505000I2500000J0D01*
G01*
%TO.C,C2*%
X104130000Y-114880000D02*
X106870000Y-114880000D01*
X104130000Y-123120000D02*
X104130000Y-114880000D01*
X104130000Y-123120000D02*
X106870000Y-123120000D01*
X106870000Y-123120000D02*
X106870000Y-114880000D01*
%TO.C,R1*%
X125532500Y-107040000D02*
X126302500Y-107040000D01*
X126302500Y-105670000D02*
X126302500Y-108410000D01*
X126302500Y-108410000D02*
X132842500Y-108410000D01*
X132842500Y-105670000D02*
X126302500Y-105670000D01*
X132842500Y-108410000D02*
X132842500Y-105670000D01*
X133612500Y-107040000D02*
X132842500Y-107040000D01*
%TO.C,J2*%
X104250000Y-101410000D02*
X112670000Y-101410000D01*
X104250000Y-111530000D02*
X104250000Y-101410000D01*
X104250000Y-111530000D02*
X112670000Y-111530000D01*
X104310000Y-102970000D02*
X105310000Y-102970000D01*
X104310000Y-104970000D02*
X104310000Y-102970000D01*
X104310000Y-104970000D02*
X105310000Y-104970000D01*
X104310000Y-107970000D02*
X105310000Y-107970000D01*
X104310000Y-109970000D02*
X104310000Y-107970000D01*
X104310000Y-109970000D02*
X105310000Y-109970000D01*
X105310000Y-104970000D02*
X105310000Y-102970000D01*
X105310000Y-109970000D02*
X105310000Y-107970000D01*
X106309000Y-111530000D02*
X106309000Y-101410000D01*
X107335000Y-102900000D02*
X107371000Y-102935000D01*
X107541000Y-102695000D02*
X107587000Y-102742000D01*
X109633000Y-105197000D02*
X109679000Y-105244000D01*
X109849000Y-105004000D02*
X109884000Y-105039000D01*
X110610000Y-111530000D02*
X110610000Y-101410000D01*
X112110000Y-111530000D02*
X112110000Y-101410000D01*
X112170000Y-111770000D02*
X112910000Y-111770000D01*
X112670000Y-111530000D02*
X112670000Y-101410000D01*
X112910000Y-111770000D02*
X112910000Y-111270000D01*
X107074574Y-109653042D02*
G75*
G02*
X107075001Y-108286001I1535419J683041D01*
G01*
X107926958Y-107434574D02*
G75*
G02*
X109294000Y-107435000I683042J-1535426D01*
G01*
X109293042Y-110505426D02*
G75*
G02*
X107926001Y-110504999I-683041J1535419D01*
G01*
X110144755Y-108286682D02*
G75*
G02*
X110289999Y-108970000I-1534755J-683318D01*
G01*
X110290252Y-108941195D02*
G75*
G02*
X110144999Y-109654000I-1680253J-28806D01*
G01*
X110290000Y-103970000D02*
G75*
G02*
X106930000Y-103970000I-1680000J0D01*
G01*
X106930000Y-103970000D02*
G75*
G02*
X110290000Y-103970000I1680000J0D01*
G01*
%TO.C,C4*%
X124560000Y-119621000D02*
X119508000Y-119621000D01*
X124560000Y-119661000D02*
X119515000Y-119661000D01*
X124560000Y-119701000D02*
X119522000Y-119701000D01*
X124560000Y-119741000D02*
X119529000Y-119741000D01*
X124560000Y-119781000D02*
X119537000Y-119781000D01*
X124560000Y-119821000D02*
X119544000Y-119821000D01*
X124560000Y-119861000D02*
X119552000Y-119861000D01*
X124560000Y-119901000D02*
X119561000Y-119901000D01*
X124560000Y-119941000D02*
X119569000Y-119941000D01*
X124560000Y-119981000D02*
X119578000Y-119981000D01*
X124560000Y-120021000D02*
X119587000Y-120021000D01*
X124560000Y-120061000D02*
X119596000Y-120061000D01*
X124560000Y-120101000D02*
X119606000Y-120101000D01*
X124560000Y-120141000D02*
X119616000Y-120141000D01*
X124560000Y-120181000D02*
X119626000Y-120181000D01*
X124560000Y-120221000D02*
X119636000Y-120221000D01*
X124560000Y-120261000D02*
X119647000Y-120261000D01*
X124560000Y-120301000D02*
X119658000Y-120301000D01*
X124560000Y-120341000D02*
X119669000Y-120341000D01*
X124560000Y-120381000D02*
X119680000Y-120381000D01*
X124560000Y-120421000D02*
X119692000Y-120421000D01*
X124560000Y-120461000D02*
X119704000Y-120461000D01*
X124560000Y-120501000D02*
X119716000Y-120501000D01*
X124560000Y-120541000D02*
X119729000Y-120541000D01*
X124560000Y-120581000D02*
X119742000Y-120581000D01*
X124560000Y-120621000D02*
X119755000Y-120621000D01*
X124560000Y-120661000D02*
X119768000Y-120661000D01*
X124560000Y-120701000D02*
X119782000Y-120701000D01*
X124560000Y-120741000D02*
X119796000Y-120741000D01*
X124560000Y-120781000D02*
X119810000Y-120781000D01*
X124560000Y-120821000D02*
X119825000Y-120821000D01*
X124560000Y-120861000D02*
X119839000Y-120861000D01*
X124560000Y-120901000D02*
X119854000Y-120901000D01*
X124560000Y-120941000D02*
X119870000Y-120941000D01*
X124560000Y-120981000D02*
X119886000Y-120981000D01*
X124560000Y-121021000D02*
X119902000Y-121021000D01*
X124560000Y-121061000D02*
X119918000Y-121061000D01*
X124560000Y-121101000D02*
X119935000Y-121101000D01*
X124560000Y-121141000D02*
X119951000Y-121141000D01*
X124560000Y-121181000D02*
X119969000Y-121181000D01*
X124560000Y-121221000D02*
X119986000Y-121221000D01*
X124560000Y-121261000D02*
X120004000Y-121261000D01*
X124560000Y-121301000D02*
X120022000Y-121301000D01*
X124560000Y-121341000D02*
X120041000Y-121341000D01*
X124560000Y-121381000D02*
X120060000Y-121381000D01*
X124560000Y-121421000D02*
X120079000Y-121421000D01*
X124560000Y-121461000D02*
X120098000Y-121461000D01*
X124560000Y-121501000D02*
X120118000Y-121501000D01*
X124560000Y-121541000D02*
X120138000Y-121541000D01*
X124560000Y-121581000D02*
X120159000Y-121581000D01*
X124560000Y-121621000D02*
X120180000Y-121621000D01*
X124560000Y-121661000D02*
X120201000Y-121661000D01*
X124560000Y-121701000D02*
X120222000Y-121701000D01*
X124560000Y-121741000D02*
X120244000Y-121741000D01*
X124560000Y-121781000D02*
X120267000Y-121781000D01*
X124560000Y-121821000D02*
X120289000Y-121821000D01*
X124560000Y-121861000D02*
X120312000Y-121861000D01*
X124560000Y-121901000D02*
X120336000Y-121901000D01*
X124560000Y-121941000D02*
X120359000Y-121941000D01*
X124560000Y-121981000D02*
X120383000Y-121981000D01*
X124560000Y-122021000D02*
X120408000Y-122021000D01*
X124560000Y-122061000D02*
X120433000Y-122061000D01*
X124560000Y-122101000D02*
X120458000Y-122101000D01*
X124560000Y-122141000D02*
X120484000Y-122141000D01*
X124560000Y-122181000D02*
X120510000Y-122181000D01*
X124560000Y-122221000D02*
X120537000Y-122221000D01*
X124560000Y-122261000D02*
X120564000Y-122261000D01*
X124560000Y-122301000D02*
X120591000Y-122301000D01*
X124560000Y-122341000D02*
X120619000Y-122341000D01*
X124560000Y-122381000D02*
X120647000Y-122381000D01*
X124560000Y-122421000D02*
X120676000Y-122421000D01*
X124560000Y-122461000D02*
X120705000Y-122461000D01*
X126475000Y-125141000D02*
X125525000Y-125141000D01*
X126850000Y-125101000D02*
X125150000Y-125101000D01*
X127107000Y-125061000D02*
X124893000Y-125061000D01*
X127315000Y-125021000D02*
X124685000Y-125021000D01*
X127494000Y-124981000D02*
X124506000Y-124981000D01*
X127653000Y-124941000D02*
X124347000Y-124941000D01*
X127798000Y-124901000D02*
X124202000Y-124901000D01*
X127931000Y-124861000D02*
X124069000Y-124861000D01*
X128055000Y-124821000D02*
X123945000Y-124821000D01*
X128171000Y-124781000D02*
X123829000Y-124781000D01*
X128281000Y-124741000D02*
X123719000Y-124741000D01*
X128385000Y-124701000D02*
X123615000Y-124701000D01*
X128484000Y-124661000D02*
X123516000Y-124661000D01*
X128579000Y-124621000D02*
X123421000Y-124621000D01*
X128670000Y-124581000D02*
X123330000Y-124581000D01*
X128758000Y-124541000D02*
X123242000Y-124541000D01*
X128842000Y-124501000D02*
X123158000Y-124501000D01*
X128923000Y-124461000D02*
X123077000Y-124461000D01*
X129002000Y-124421000D02*
X122998000Y-124421000D01*
X129078000Y-124381000D02*
X122922000Y-124381000D01*
X129152000Y-124341000D02*
X122848000Y-124341000D01*
X129223000Y-124301000D02*
X122777000Y-124301000D01*
X129293000Y-124261000D02*
X122707000Y-124261000D01*
X129361000Y-124221000D02*
X122639000Y-124221000D01*
X129427000Y-124181000D02*
X122573000Y-124181000D01*
X129491000Y-124141000D02*
X122509000Y-124141000D01*
X129554000Y-124101000D02*
X122446000Y-124101000D01*
X129615000Y-124061000D02*
X122385000Y-124061000D01*
X129675000Y-124021000D02*
X122325000Y-124021000D01*
X129715000Y-111455431D02*
X129715000Y-112755431D01*
X129733000Y-123981000D02*
X122267000Y-123981000D01*
X129790000Y-123941000D02*
X122210000Y-123941000D01*
X129846000Y-123901000D02*
X122154000Y-123901000D01*
X129900000Y-123861000D02*
X122100000Y-123861000D01*
X129954000Y-123821000D02*
X122046000Y-123821000D01*
X130006000Y-123781000D02*
X121994000Y-123781000D01*
X130057000Y-123741000D02*
X121943000Y-123741000D01*
X130108000Y-123701000D02*
X121892000Y-123701000D01*
X130157000Y-123661000D02*
X121843000Y-123661000D01*
X130205000Y-123621000D02*
X121795000Y-123621000D01*
X130253000Y-123581000D02*
X121747000Y-123581000D01*
X130299000Y-123541000D02*
X121701000Y-123541000D01*
X130345000Y-123501000D02*
X121655000Y-123501000D01*
X130365000Y-112105431D02*
X129065000Y-112105431D01*
X130390000Y-123461000D02*
X121610000Y-123461000D01*
X130434000Y-123421000D02*
X121566000Y-123421000D01*
X130477000Y-123381000D02*
X121523000Y-123381000D01*
X130519000Y-123341000D02*
X121481000Y-123341000D01*
X130561000Y-123301000D02*
X121439000Y-123301000D01*
X130602000Y-123261000D02*
X121398000Y-123261000D01*
X130643000Y-123221000D02*
X121357000Y-123221000D01*
X130682000Y-123181000D02*
X121318000Y-123181000D01*
X130721000Y-123141000D02*
X121279000Y-123141000D01*
X130760000Y-123101000D02*
X121240000Y-123101000D01*
X130797000Y-123061000D02*
X121203000Y-123061000D01*
X130834000Y-123021000D02*
X121166000Y-123021000D01*
X130871000Y-122981000D02*
X121129000Y-122981000D01*
X130907000Y-122941000D02*
X121093000Y-122941000D01*
X130942000Y-122901000D02*
X121058000Y-122901000D01*
X130977000Y-122861000D02*
X121023000Y-122861000D01*
X131011000Y-122821000D02*
X120989000Y-122821000D01*
X131044000Y-122781000D02*
X120956000Y-122781000D01*
X131078000Y-122741000D02*
X120922000Y-122741000D01*
X131110000Y-122701000D02*
X120890000Y-122701000D01*
X131142000Y-122661000D02*
X120858000Y-122661000D01*
X131174000Y-122621000D02*
X120826000Y-122621000D01*
X131205000Y-122581000D02*
X120795000Y-122581000D01*
X131235000Y-122541000D02*
X120765000Y-122541000D01*
X131265000Y-122501000D02*
X120735000Y-122501000D01*
X131295000Y-122461000D02*
X127440000Y-122461000D01*
X131324000Y-122421000D02*
X127440000Y-122421000D01*
X131353000Y-122381000D02*
X127440000Y-122381000D01*
X131381000Y-122341000D02*
X127440000Y-122341000D01*
X131409000Y-122301000D02*
X127440000Y-122301000D01*
X131436000Y-122261000D02*
X127440000Y-122261000D01*
X131463000Y-122221000D02*
X127440000Y-122221000D01*
X131490000Y-122181000D02*
X127440000Y-122181000D01*
X131516000Y-122141000D02*
X127440000Y-122141000D01*
X131542000Y-122101000D02*
X127440000Y-122101000D01*
X131567000Y-122061000D02*
X127440000Y-122061000D01*
X131592000Y-122021000D02*
X127440000Y-122021000D01*
X131617000Y-121981000D02*
X127440000Y-121981000D01*
X131641000Y-121941000D02*
X127440000Y-121941000D01*
X131664000Y-121901000D02*
X127440000Y-121901000D01*
X131688000Y-121861000D02*
X127440000Y-121861000D01*
X131711000Y-121821000D02*
X127440000Y-121821000D01*
X131733000Y-121781000D02*
X127440000Y-121781000D01*
X131756000Y-121741000D02*
X127440000Y-121741000D01*
X131778000Y-121701000D02*
X127440000Y-121701000D01*
X131799000Y-121661000D02*
X127440000Y-121661000D01*
X131820000Y-121621000D02*
X127440000Y-121621000D01*
X131841000Y-121581000D02*
X127440000Y-121581000D01*
X131862000Y-121541000D02*
X127440000Y-121541000D01*
X131882000Y-121501000D02*
X127440000Y-121501000D01*
X131902000Y-121461000D02*
X127440000Y-121461000D01*
X131921000Y-121421000D02*
X127440000Y-121421000D01*
X131940000Y-121381000D02*
X127440000Y-121381000D01*
X131959000Y-121341000D02*
X127440000Y-121341000D01*
X131978000Y-121301000D02*
X127440000Y-121301000D01*
X131996000Y-121261000D02*
X127440000Y-121261000D01*
X132014000Y-121221000D02*
X127440000Y-121221000D01*
X132031000Y-121181000D02*
X127440000Y-121181000D01*
X132049000Y-121141000D02*
X127440000Y-121141000D01*
X132065000Y-121101000D02*
X127440000Y-121101000D01*
X132082000Y-121061000D02*
X127440000Y-121061000D01*
X132098000Y-121021000D02*
X127440000Y-121021000D01*
X132114000Y-120981000D02*
X127440000Y-120981000D01*
X132130000Y-120941000D02*
X127440000Y-120941000D01*
X132146000Y-120901000D02*
X127440000Y-120901000D01*
X132161000Y-120861000D02*
X127440000Y-120861000D01*
X132175000Y-120821000D02*
X127440000Y-120821000D01*
X132190000Y-120781000D02*
X127440000Y-120781000D01*
X132204000Y-120741000D02*
X127440000Y-120741000D01*
X132218000Y-120701000D02*
X127440000Y-120701000D01*
X132232000Y-120661000D02*
X127440000Y-120661000D01*
X132245000Y-120621000D02*
X127440000Y-120621000D01*
X132258000Y-120581000D02*
X127440000Y-120581000D01*
X132271000Y-120541000D02*
X127440000Y-120541000D01*
X132284000Y-120501000D02*
X127440000Y-120501000D01*
X132296000Y-120461000D02*
X127440000Y-120461000D01*
X132308000Y-120421000D02*
X127440000Y-120421000D01*
X132320000Y-120381000D02*
X127440000Y-120381000D01*
X132331000Y-120341000D02*
X127440000Y-120341000D01*
X132342000Y-120301000D02*
X127440000Y-120301000D01*
X132353000Y-120261000D02*
X127440000Y-120261000D01*
X132364000Y-120221000D02*
X127440000Y-120221000D01*
X132374000Y-120181000D02*
X127440000Y-120181000D01*
X132384000Y-120141000D02*
X127440000Y-120141000D01*
X132394000Y-120101000D02*
X127440000Y-120101000D01*
X132404000Y-120061000D02*
X127440000Y-120061000D01*
X132413000Y-120021000D02*
X127440000Y-120021000D01*
X132422000Y-119981000D02*
X127440000Y-119981000D01*
X132431000Y-119941000D02*
X127440000Y-119941000D01*
X132439000Y-119901000D02*
X127440000Y-119901000D01*
X132448000Y-119861000D02*
X127440000Y-119861000D01*
X132456000Y-119821000D02*
X127440000Y-119821000D01*
X132463000Y-119781000D02*
X127440000Y-119781000D01*
X132471000Y-119741000D02*
X127440000Y-119741000D01*
X132478000Y-119701000D02*
X127440000Y-119701000D01*
X132485000Y-119661000D02*
X127440000Y-119661000D01*
X132492000Y-119621000D02*
X127440000Y-119621000D01*
X132498000Y-119581000D02*
X119502000Y-119581000D01*
X132505000Y-119541000D02*
X119495000Y-119541000D01*
X132511000Y-119501000D02*
X119489000Y-119501000D01*
X132516000Y-119461000D02*
X119484000Y-119461000D01*
X132522000Y-119421000D02*
X119478000Y-119421000D01*
X132527000Y-119381000D02*
X119473000Y-119381000D01*
X132532000Y-119341000D02*
X119468000Y-119341000D01*
X132537000Y-119301000D02*
X119463000Y-119301000D01*
X132541000Y-119261000D02*
X119459000Y-119261000D01*
X132545000Y-119220000D02*
X119455000Y-119220000D01*
X132549000Y-119180000D02*
X119451000Y-119180000D01*
X132553000Y-119140000D02*
X119447000Y-119140000D01*
X132557000Y-119100000D02*
X119443000Y-119100000D01*
X132560000Y-119060000D02*
X119440000Y-119060000D01*
X132563000Y-119020000D02*
X119437000Y-119020000D01*
X132566000Y-118980000D02*
X119434000Y-118980000D01*
X132568000Y-118940000D02*
X119432000Y-118940000D01*
X132571000Y-118900000D02*
X119429000Y-118900000D01*
X132573000Y-118860000D02*
X119427000Y-118860000D01*
X132575000Y-118820000D02*
X119425000Y-118820000D01*
X132576000Y-118780000D02*
X119424000Y-118780000D01*
X132577000Y-118740000D02*
X119423000Y-118740000D01*
X132579000Y-118660000D02*
X119421000Y-118660000D01*
X132579000Y-118700000D02*
X119421000Y-118700000D01*
X132580000Y-118540000D02*
X119420000Y-118540000D01*
X132580000Y-118580000D02*
X119420000Y-118580000D01*
X132580000Y-118620000D02*
X119420000Y-118620000D01*
X132620000Y-118540000D02*
G75*
G02*
X119380000Y-118540000I-6620000J0D01*
G01*
X119380000Y-118540000D02*
G75*
G02*
X132620000Y-118540000I6620000J0D01*
G01*
%TO.C,C5*%
X135080000Y-115770000D02*
X135080000Y-119810000D01*
X135705000Y-115770000D02*
X135080000Y-115770000D01*
X135705000Y-119810000D02*
X135080000Y-119810000D01*
X137920000Y-115770000D02*
X137295000Y-115770000D01*
X137920000Y-115770000D02*
X137920000Y-119810000D01*
X137920000Y-119810000D02*
X137295000Y-119810000D01*
%TO.C,J4*%
X124000000Y-126005000D02*
X136000000Y-126005000D01*
X124000000Y-137005000D02*
X124000000Y-126005000D01*
X125500000Y-137005000D02*
X124000000Y-137005000D01*
X125500000Y-138205000D02*
X125500000Y-137005000D01*
X127000000Y-138205000D02*
X125500000Y-138205000D01*
X127000000Y-140005000D02*
X127000000Y-138205000D01*
X128000000Y-137005000D02*
X128000000Y-140005000D01*
X132000000Y-137005000D02*
X128000000Y-137005000D01*
X132000000Y-140005000D02*
X132000000Y-137005000D01*
X133000000Y-138205000D02*
X133000000Y-140005000D01*
X133000000Y-140005000D02*
X127000000Y-140005000D01*
X134500000Y-137005000D02*
X134500000Y-138205000D01*
X134500000Y-138205000D02*
X133000000Y-138205000D01*
X136000000Y-126005000D02*
X136000000Y-137005000D01*
X136000000Y-137005000D02*
X134500000Y-137005000D01*
%TO.C,C1*%
X113960000Y-115824888D02*
X112431000Y-115824888D01*
X113960000Y-115864888D02*
X112435000Y-115864888D01*
X113960000Y-115904888D02*
X112439000Y-115904888D01*
X113960000Y-115944888D02*
X112444000Y-115944888D01*
X113960000Y-115984888D02*
X112450000Y-115984888D01*
X113960000Y-116024888D02*
X112457000Y-116024888D01*
X113960000Y-116064888D02*
X112464000Y-116064888D01*
X113960000Y-116104888D02*
X112472000Y-116104888D01*
X113960000Y-116144888D02*
X112480000Y-116144888D01*
X113960000Y-116184888D02*
X112489000Y-116184888D01*
X113960000Y-116224888D02*
X112499000Y-116224888D01*
X113960000Y-116264888D02*
X112509000Y-116264888D01*
X113960000Y-116305888D02*
X112520000Y-116305888D01*
X113960000Y-116345888D02*
X112532000Y-116345888D01*
X113960000Y-116385888D02*
X112545000Y-116385888D01*
X113960000Y-116425888D02*
X112558000Y-116425888D01*
X113960000Y-116465888D02*
X112572000Y-116465888D01*
X113960000Y-116505888D02*
X112586000Y-116505888D01*
X113960000Y-116545888D02*
X112602000Y-116545888D01*
X113960000Y-116585888D02*
X112618000Y-116585888D01*
X113960000Y-116625888D02*
X112635000Y-116625888D01*
X113960000Y-116665888D02*
X112652000Y-116665888D01*
X113960000Y-116705888D02*
X112671000Y-116705888D01*
X113960000Y-116745888D02*
X112690000Y-116745888D01*
X113960000Y-116785888D02*
X112710000Y-116785888D01*
X113960000Y-116825888D02*
X112732000Y-116825888D01*
X113960000Y-116865888D02*
X112753000Y-116865888D01*
X113960000Y-116905888D02*
X112776000Y-116905888D01*
X113960000Y-116945888D02*
X112800000Y-116945888D01*
X113960000Y-116985888D02*
X112825000Y-116985888D01*
X113960000Y-117025888D02*
X112851000Y-117025888D01*
X113960000Y-117065888D02*
X112878000Y-117065888D01*
X113960000Y-117105888D02*
X112905000Y-117105888D01*
X113960000Y-117145888D02*
X112935000Y-117145888D01*
X113960000Y-117185888D02*
X112965000Y-117185888D01*
X113960000Y-117225888D02*
X112996000Y-117225888D01*
X113960000Y-117265888D02*
X113029000Y-117265888D01*
X113960000Y-117305888D02*
X113063000Y-117305888D01*
X113960000Y-117345888D02*
X113099000Y-117345888D01*
X113960000Y-117385888D02*
X113136000Y-117385888D01*
X113960000Y-117425888D02*
X113174000Y-117425888D01*
X113960000Y-117465888D02*
X113215000Y-117465888D01*
X113960000Y-117505888D02*
X113257000Y-117505888D01*
X113960000Y-117545888D02*
X113301000Y-117545888D01*
X113960000Y-117585888D02*
X113347000Y-117585888D01*
X113960000Y-117625888D02*
X113395000Y-117625888D01*
X113960000Y-117665888D02*
X113446000Y-117665888D01*
X113960000Y-117705888D02*
X113500000Y-117705888D01*
X113960000Y-117745888D02*
X113557000Y-117745888D01*
X113960000Y-117785888D02*
X113617000Y-117785888D01*
X113960000Y-117825888D02*
X113681000Y-117825888D01*
X113960000Y-117865888D02*
X113749000Y-117865888D01*
X115284000Y-118185888D02*
X114716000Y-118185888D01*
X115518000Y-118145888D02*
X114482000Y-118145888D01*
X115677000Y-118105888D02*
X114323000Y-118105888D01*
X115805000Y-118065888D02*
X114195000Y-118065888D01*
X115915000Y-118025888D02*
X114085000Y-118025888D01*
X116011000Y-117985888D02*
X113989000Y-117985888D01*
X116098000Y-117945888D02*
X113902000Y-117945888D01*
X116178000Y-117905888D02*
X113822000Y-117905888D01*
X116251000Y-117865888D02*
X116040000Y-117865888D01*
X116319000Y-117825888D02*
X116040000Y-117825888D01*
X116383000Y-117785888D02*
X116040000Y-117785888D01*
X116443000Y-117745888D02*
X116040000Y-117745888D01*
X116475000Y-112780113D02*
X116475000Y-113280113D01*
X116500000Y-117705888D02*
X116040000Y-117705888D01*
X116554000Y-117665888D02*
X116040000Y-117665888D01*
X116605000Y-117625888D02*
X116040000Y-117625888D01*
X116653000Y-117585888D02*
X116040000Y-117585888D01*
X116699000Y-117545888D02*
X116040000Y-117545888D01*
X116725000Y-113030113D02*
X116225000Y-113030113D01*
X116743000Y-117505888D02*
X116040000Y-117505888D01*
X116785000Y-117465888D02*
X116040000Y-117465888D01*
X116826000Y-117425888D02*
X116040000Y-117425888D01*
X116864000Y-117385888D02*
X116040000Y-117385888D01*
X116901000Y-117345888D02*
X116040000Y-117345888D01*
X116937000Y-117305888D02*
X116040000Y-117305888D01*
X116971000Y-117265888D02*
X116040000Y-117265888D01*
X117004000Y-117225888D02*
X116040000Y-117225888D01*
X117035000Y-117185888D02*
X116040000Y-117185888D01*
X117065000Y-117145888D02*
X116040000Y-117145888D01*
X117095000Y-117105888D02*
X116040000Y-117105888D01*
X117122000Y-117065888D02*
X116040000Y-117065888D01*
X117149000Y-117025888D02*
X116040000Y-117025888D01*
X117175000Y-116985888D02*
X116040000Y-116985888D01*
X117200000Y-116945888D02*
X116040000Y-116945888D01*
X117224000Y-116905888D02*
X116040000Y-116905888D01*
X117247000Y-116865888D02*
X116040000Y-116865888D01*
X117268000Y-116825888D02*
X116040000Y-116825888D01*
X117290000Y-116785888D02*
X116040000Y-116785888D01*
X117310000Y-116745888D02*
X116040000Y-116745888D01*
X117329000Y-116705888D02*
X116040000Y-116705888D01*
X117348000Y-116665888D02*
X116040000Y-116665888D01*
X117365000Y-116625888D02*
X116040000Y-116625888D01*
X117382000Y-116585888D02*
X116040000Y-116585888D01*
X117398000Y-116545888D02*
X116040000Y-116545888D01*
X117414000Y-116505888D02*
X116040000Y-116505888D01*
X117428000Y-116465888D02*
X116040000Y-116465888D01*
X117442000Y-116425888D02*
X116040000Y-116425888D01*
X117455000Y-116385888D02*
X116040000Y-116385888D01*
X117468000Y-116345888D02*
X116040000Y-116345888D01*
X117480000Y-116305888D02*
X116040000Y-116305888D01*
X117491000Y-116264888D02*
X116040000Y-116264888D01*
X117501000Y-116224888D02*
X116040000Y-116224888D01*
X117511000Y-116184888D02*
X116040000Y-116184888D01*
X117520000Y-116144888D02*
X116040000Y-116144888D01*
X117528000Y-116104888D02*
X116040000Y-116104888D01*
X117536000Y-116064888D02*
X116040000Y-116064888D01*
X117543000Y-116024888D02*
X116040000Y-116024888D01*
X117550000Y-115984888D02*
X116040000Y-115984888D01*
X117556000Y-115944888D02*
X116040000Y-115944888D01*
X117561000Y-115904888D02*
X116040000Y-115904888D01*
X117565000Y-115864888D02*
X116040000Y-115864888D01*
X117569000Y-115824888D02*
X116040000Y-115824888D01*
X117573000Y-115784888D02*
X112427000Y-115784888D01*
X117576000Y-115744888D02*
X112424000Y-115744888D01*
X117578000Y-115704888D02*
X112422000Y-115704888D01*
X117579000Y-115664888D02*
X112421000Y-115664888D01*
X117580000Y-115584888D02*
X112420000Y-115584888D01*
X117580000Y-115624888D02*
X112420000Y-115624888D01*
X117620000Y-115584888D02*
G75*
G02*
X112380000Y-115584888I-2620000J0D01*
G01*
X112380000Y-115584888D02*
G75*
G02*
X117620000Y-115584888I2620000J0D01*
G01*
%TO.C,C3*%
X107630000Y-114880000D02*
X110370000Y-114880000D01*
X107630000Y-123120000D02*
X107630000Y-114880000D01*
X107630000Y-123120000D02*
X110370000Y-123120000D01*
X110370000Y-123120000D02*
X110370000Y-114880000D01*
%TO.C,J3*%
X139200000Y-101170000D02*
X139200000Y-101670000D01*
X139440000Y-101410000D02*
X139440000Y-111530000D01*
X139940000Y-101170000D02*
X139200000Y-101170000D01*
X140000000Y-101410000D02*
X140000000Y-111530000D01*
X141500000Y-101410000D02*
X141500000Y-111530000D01*
X142261000Y-107936000D02*
X142226000Y-107901000D01*
X142477000Y-107743000D02*
X142431000Y-107696000D01*
X144569000Y-110245000D02*
X144523000Y-110198000D01*
X144775000Y-110040000D02*
X144739000Y-110005000D01*
X145801000Y-101410000D02*
X145801000Y-111530000D01*
X146800000Y-102970000D02*
X146800000Y-104970000D01*
X146800000Y-107970000D02*
X146800000Y-109970000D01*
X147800000Y-102970000D02*
X146800000Y-102970000D01*
X147800000Y-102970000D02*
X147800000Y-104970000D01*
X147800000Y-104970000D02*
X146800000Y-104970000D01*
X147800000Y-107970000D02*
X146800000Y-107970000D01*
X147800000Y-107970000D02*
X147800000Y-109970000D01*
X147800000Y-109970000D02*
X146800000Y-109970000D01*
X147860000Y-101410000D02*
X139440000Y-101410000D01*
X147860000Y-101410000D02*
X147860000Y-111530000D01*
X147860000Y-111530000D02*
X139440000Y-111530000D01*
X141819748Y-103998805D02*
G75*
G02*
X141965001Y-103286000I1680253J28806D01*
G01*
X141965245Y-104653318D02*
G75*
G02*
X141820001Y-103970000I1534755J683318D01*
G01*
X142816958Y-102434574D02*
G75*
G02*
X144183999Y-102435001I683041J-1535419D01*
G01*
X144183042Y-105505426D02*
G75*
G02*
X142816000Y-105505000I-683042J1535426D01*
G01*
X145035426Y-103286958D02*
G75*
G02*
X145034999Y-104653999I-1535419J-683041D01*
G01*
X145180000Y-108970000D02*
G75*
G02*
X141820000Y-108970000I-1680000J0D01*
G01*
X141820000Y-108970000D02*
G75*
G02*
X145180000Y-108970000I1680000J0D01*
G01*
%TD*%
M02*
