M48
; DRILL file {KiCad 8.0.1} date 2024-06-17T12:01:40-0700
; FORMAT={-:-/ absolute / inch / decimal}
; #@! TF.CreationDate,2024-06-17T12:01:40-07:00
; #@! TF.GenerationSoftware,Kicad,Pcbnew,8.0.1
; #@! TF.FileFunction,Plated,1,2,PTH
FMAT,2
INCH
; #@! TA.AperFunction,Plated,PTH,ComponentDrill
T1C0.0157
; #@! TA.AperFunction,Plated,PTH,ComponentDrill
T2C0.0197
; #@! TA.AperFunction,Plated,PTH,ComponentDrill
T3C0.0315
; #@! TA.AperFunction,Plated,PTH,ComponentDrill
T4C0.0354
; #@! TA.AperFunction,Plated,PTH,ComponentDrill
T5C0.0425
; #@! TA.AperFunction,Plated,PTH,ComponentDrill
T6C0.0472
; #@! TA.AperFunction,Plated,PTH,ComponentDrill
T7C0.0512
%
G90
G05
T2
X4.7203Y-4.1496
X5.3935Y-4.1496
T3
X4.1535Y-4.5866
X4.1535Y-4.7835
X4.2913Y-4.5866
X4.2913Y-4.7835
X4.5044Y-4.3386
X4.5276Y-4.5014
X4.5276Y-4.5998
X4.9013Y-4.2142
X4.9044Y-4.3386
X5.2528Y-4.4685
X5.3013Y-4.2142
X5.374Y-4.5882
X5.374Y-4.6866
X5.6528Y-4.4685
T4
X5.6496Y-4.6943
X5.6496Y-4.7943
T5
X4.6216Y-4.0583
X4.6716Y-3.8583
X4.7216Y-4.0583
X4.7716Y-3.8583
X4.8216Y-4.0583
X4.8716Y-3.8583
X4.9216Y-4.0583
X4.9716Y-3.8583
X5.0216Y-4.0583
X5.0716Y-3.8583
X5.1216Y-4.0583
X5.1716Y-3.8583
X5.2216Y-4.0583
X5.2716Y-3.8583
X5.3216Y-4.0583
T6
X4.252Y-5.0907
X4.252Y-5.2876
X4.4488Y-5.0907
X4.4488Y-5.2876
X4.6457Y-5.0907
X4.6457Y-5.2876
X4.9606Y-4.5685
X4.9606Y-4.7654
T7
X4.276Y-4.0933
X4.276Y-4.2902
X5.6496Y-4.0933
X5.6496Y-4.2902
X5.6496Y-5.0394
X5.6496Y-5.2362
T1
G00X4.9213Y-5.0474
M15
G01X4.9213Y-5.0868
M16
G05
G00X5.0984Y-5.264
M15
G01X5.1378Y-5.264
M16
G05
G00X5.315Y-5.0868
M15
G01X5.315Y-5.0474
M16
G05
M30
